<?xml version="1.0" encoding="UTF-8"?>
<svg enable-background="new 0 0 1674.097 1658.228" version="1.1" viewBox="0 0 1674.097 1658.228" xmlns="http://www.w3.org/2000/svg">
 <path d="m1513.6 341.77c-184.52-54.307-376.57-238.78-423.21-195.06-62.286 52.853-140.92 82.704-220.39 98.405-0.29-90.265-1.941-61.713 19.319-86.516 31.014-26.168 30.239-78.181 1.938-106.03-52.846-55.225-142.23-3.026-128.77 65.194 2.52 24.876 22.421 41.352 39.543 57.118 4.006 23.131 1.68 46.779 2.326 70.169-67.714-13.052-134.14-37.281-191.58-75.92-18.091-11.372-33.728-35.472-58.151-28.042-86.385 20.386-224.9 146.3-383.73 197.58-45.681 16.024-95.11 12.599-141.5 25.457v5.492c51.238 18.156 108.16 16.993 161.08 6.914 16.511 14.13 1.396 33.933 116.63-3.037 22.873 23.002 54.921 7.43 81.283 0.581 14.15-5.234 28.43 2.132 42.386 4.264 19.255 5.363 38.38-2.908 57.441-4.588 17.122 0.969 33.986 5.815 51.173 4.135 18.221-1.421 34.761-9.821 52.271-14.344 16.476 1.68 32.888 8.27 49.687 5.04 17.51-2.843 32.565-12.664 48.782-19.19 34.661-1.733 29.282 22.612 115.2-34.18 1.874 142.28 4.846 284.62 5.815 426.96-125.97-50.854-290.66-64.391-314.99-114.43-9.692-37.217 23.067-71.074 56.342-81.606 37.217-7.689 75.92-1.938 113.46-8.658 39.556-7.081 55.776-20.026 92.053-51.174 2.936-2.521 2.396-7.211-1.038-8.997-52.779-27.458-47.37-0.744-133.54-38.676-17.938-7.901-38.244 17.857-68.669 31.521-40.706 18.996-81.541 43.29-106.35 81.993-26.62 40.447-20.418 97.113 9.692 134.01 55.028 67.568 178.56 81.23 295.54 112.43-17.575 14.796-35.472 29.463-49.945 47.426-38.315 46.521-56.084 110.16-45.616 169.67 12.793 57.311 65.711 91.298 113.14 118.76-35.085 23.713-70.105 50.979-89.424 89.747-55.329 116.17 31.623 163.36 128.58 234.35-31.701 39.805-77.034 107.03-51.109 151.13 12.022-43.748 1.315-60.189 62.416-118.18 1.745 45.81 1.357 91.685 2.003 137.56 8.917 0 17.833 0.065 26.75 0.065 0.323-45.94 0.711-91.944 1.68-137.88 63.803 61.612 49.292 73.306 62.933 118.05 4.781-11.566 9.886-23.777 6.849-36.506-4.975-43.937-31.143-81.218-58.797-114.24 90.038-63.65 168.37-108.79 139.69-206.7-13.569-52.207-56.73-88.584-99.568-117.66 97.136-54.925 137.06-106.74 106.03-216.39-14.021-49.105-49.493-88.196-88.584-119.47 85.095-23.067 175.55-33.405 253.67-76.76 68.8-36.962 131.08-163.35-50.592-249.21-20.864-8.818-38.541-29.374-60.964-33.801-19.642-3.878-33.906 15.734-65.677 19.651-41.854 5.16-101.24 10.742-78.699 30.329 19.219 16.698 42.676 37.674 67.779 44.427 41.094 11.049 83.996 6.59 125.8 11.113 36.377 6.267 72.301 38.961 67.132 78.375-13.209 53.385-180.52 66.22-316.02 119.47 0.581-142.34 4.264-284.68 5.363-427.02 82.969 54.81 77.507 34.398 115.33 34.245 16.218 6.72 31.208 17.122 48.976 19.384 16.864 2.843 33.34-3.101 50.01-4.717 17.252 4.329 33.663 12.47 51.625 14.021 17.51 2.132 34.632-3.231 52.013-4.2 18.867 2.132 37.798 9.886 56.859 4.652 13.892-2.132 28.106-9.304 42.257-4.264 26.362 6.526 58.345 22.679 81.024-0.582 106.18 36.645 103.24 17.838 116.95 3.295 53.111 10.855 108.87 8.787 161.21-5.298v-6.203c-42.386-14.732-88.454-9.822-131.1-23.455zm-882.81 135.02c0 22.795-34.5 22.818-34.5 0 0-22.795 34.5-22.818 34.5 0zm95.181 530.16c-15.765-67.908 26.556-137.56 86.969-167.67 1.034 82.316 2.843 164.63 3.683 246.95-34.569-19.901-75.21-39.931-90.652-79.28zm2.39 320.03c-17.122-19.836-11.63-48.847-0.969-70.363 18.738-36.377 55.502-57.247 88.971-77.987 4.329 78.957 2.455 158.17 4.846 237.19-33.016-27.203-65.581-55.762-92.848-88.843zm321.18-832.94c-22.795 0-22.818-34.5 0-34.5 22.794 0 22.818 34.5 0 34.5zm-98.653 771.56c18.269 52.246-3.195 66.498-98.017 150.81 1.68-79.28 1.745-158.56 4.006-237.84 36.506 22.097 77.082 45.487 94.011 87.033zm-1.486-263.36c-12.664 42.58-56.73 63.126-92.073 84.255 1.551-82.575 2.261-165.08 4.006-247.66 58.539 30.368 100.41 96.402 88.067 163.4z"/>
</svg>
